<?xml version="1.0" encoding="utf-8"?>
<!-- Generator: Adobe Illustrator 19.2.1, SVG Export Plug-In . SVG Version: 6.00 Build 0)  -->
<svg version="1.1" id="layer" xmlns="http://www.w3.org/2000/svg" xmlns:xlink="http://www.w3.org/1999/xlink" x="0px" y="0px"
	 viewBox="0 0 652 652" style="enable-background:new 0 0 652 652;" xml:space="preserve">
<style type="text/css">
	.st0{fill-rule:evenodd;clip-rule:evenodd;fill:#98C21F;}
	.st1{fill:#98C21F;}
</style>
<g>
	<path class="st0" d="M117.8,385.4c-4.7,0-9.1-3.8-10-8.5l-12.6-71.7l-29,71.8c-1.9,4.6-7.1,8.4-11.8,8.4h-8.3
		c-4.7,0-9.1-3.8-10-8.5l-15.8-89.8H29c4.7,0,9.1,3.8,10,8.5l12.6,71.7l29-71.8c1.9-4.6,7.1-8.4,11.8-8.4h8.2c4.7,0,9.1,3.8,10,8.5
		l12.6,71.7l27.6-71.8c1.9-4.6,7.1-8.4,11.8-8.4h11.6L137.9,377c-1.9,4.6-7.2,8.4-11.8,8.4H117.8z"/>
	<path class="st1" d="M618.5,266.2c-1.3-2.2-3-3.9-5.2-5.2c-2.2-1.3-4.6-1.9-7.1-1.9c-2.5,0-4.9,0.6-7.1,1.9c-2.2,1.3-3.9,3-5.2,5.2
		c-1.3,2.2-1.9,4.6-1.9,7.1c0,2.5,0.6,4.8,1.8,7c1.2,2.2,2.9,3.9,5.2,5.2c2.2,1.3,4.6,2,7.2,2c2.6,0,5-0.7,7.2-2
		c2.2-1.3,3.9-3.1,5.1-5.2c1.2-2.2,1.8-4.5,1.8-7C620.4,270.8,619.8,268.4,618.5,266.2 M616.8,279.5c-1.1,1.9-2.6,3.4-4.5,4.4
		c-1.9,1.1-3.9,1.6-6.1,1.6c-2.2,0-4.2-0.5-6.1-1.6c-1.9-1.1-3.4-2.6-4.5-4.5c-1.1-1.9-1.6-3.9-1.6-6.1c0-2.2,0.5-4.3,1.7-6.1
		c1.1-1.9,2.6-3.4,4.5-4.4c1.9-1.1,3.9-1.6,6.1-1.6c2.2,0,4.3,0.6,6.1,1.7c1.9,1.1,3.4,2.6,4.4,4.5c1.1,1.9,1.6,3.9,1.6,6.1
		C618.5,275.5,617.9,277.6,616.8,279.5"/>
	<path class="st1" d="M611.2,272.6c0.5-0.8,0.8-1.7,0.8-2.7c0-1.7-0.5-2.9-1.5-3.7c-1-0.8-2.5-1.2-4.6-1.2H601v16.8h2.8v-6.7h2.5
		l3.9,6.7h3.2l-4.5-7.5C609.9,273.9,610.7,273.3,611.2,272.6 M605.8,272.7h-2v-5.4h2c1.2,0,2,0.2,2.6,0.6c0.5,0.4,0.8,1.1,0.8,2
		c0,0.8-0.3,1.5-0.9,2C607.7,272.5,606.8,272.7,605.8,272.7"/>
	<polygon class="st0" points="281.8,385.4 304.1,258.7 321.2,258.7 298.8,385.4 	"/>
	<polygon class="st0" points="313.1,385.4 335.4,258.7 352.5,258.7 330.1,385.4 	"/>
	<path class="st1" d="M361,385.4c-9.2,0-15.3-7.5-13.7-16.6l19.4-110h17.1l-5,28.4h72.7c9.2,0,15.3,7.5,13.7,16.6l-11.5,65
		c-1.6,9.2-10.4,16.6-19.6,16.6H361z M365.8,360.6c-0.7,4.3,2.1,7.7,6.4,7.7H429c4.3,0,8.3-3.5,9.1-7.7l8.6-48.7
		c0.7-4.3-2.1-7.7-6.4-7.7h-64.6L365.8,360.6z"/>
	<path class="st1" d="M481.6,385.4c-9.5,0-15.3-7.8-13.5-18.1l11.5-65c1.4-8.1,10.5-15.2,19.3-15.2H572c9.2,0,15.3,7.5,13.7,16.6
		l-5.5,31.1c-1.6,9.2-10.4,16.6-19.6,16.6H488l-1.6,9.2c-0.7,4.3,2.1,7.7,6.3,7.7h79.8l-0.1,0.4c-1.6,9.2-10.4,16.6-19.6,16.6H481.6
		z M557.6,334.4c2.1,0,5.8-0.5,6.4-4.3l3.6-20.3c0.5-3.1-1.5-5.7-4.7-5.7H502c-3.1,0-6.1,2.6-6.7,5.7l-4.3,24.6H557.6z"/>
	<path class="st1" d="M177.8,385.4c-9.2,0-15.3-7.5-13.7-16.6l5.5-31.1c1.6-9.2,10.4-16.6,19.6-16.6h72.7l1.6-9.2
		c0.7-4.3-2.1-7.7-6.4-7.7h-75.5l0.1-0.4c1.6-9.2,10.4-16.6,19.6-16.6h67c9.5,0,15.3,7.8,13.5,18.1l-11.5,65
		c-1.4,8.1-10.5,15.2-19.3,15.2H177.8z M192.3,338.1c-3.1,0-6.1,2.5-6.7,5.7l-3.3,18.9c-0.5,3.1,1.5,5.7,4.7,5.7h60.9
		c3.1,0,6.1-2.5,6.7-5.7l4.3-24.6H192.3z"/>
</g>
</svg>
